# xmcd
#
# Track frame offsets: 
#        150
#        15228
#        27477
#        40432
#        51565
#        64357
#        79577
#        101514
#        144025
#        157227
#        168827
#        188968
#        203539
#        216184
#        230269
#        245978
#        255803
#        276129
#        289236
#        302021
#        313089
#
# Disc length: 4395 seconds
#
# Revision: 3
# Processed by: cddbd v1.5.2PL0 Copyright (c) Steve Scherf et al.
# Submitted via: ExactAudioCopyFreeDBPlugin 1.0
#
DISCID=2a112915
DTITLE=Various Artist - Stax Funx
DYEAR=1999
DGENRE=Funk
TTITLE0=Isaac Hayes - Do Your Thing
TTITLE1=Lee Sain - She's My Old Lady Too
TTITLE2=Jean Knight - Do Me
TTITLE3=Melvin Van Peebles - Hoppin' John
TTITLE4=Johnnie Taylor - Who's Making Love
TTITLE5=Bobby Holley - Movin' Dancer
TTITLE6=Steve Cropper - Funky Broadway
TTITLE7=Eric Mercury - It's Time for Me to Love You
TTITLE8=The Bar-Kays - Sang and Dance
TTITLE9=The T.S.U. Toronados - Play the Music Toronados
TTITLE10=Bernie Hayes - Monkey Scratch, Parts 1 and 2
TTITLE11=Rufus Thomas - Itch and Scratch, Part 1
TTITLE12=Calvin Scott - Shame on the Family Name
TTITLE13=Lee Sain - Them Hot Pants, Part 1
TTITLE14=The Temprees - Mr Cool, That Ain't Cool
TTITLE15=Mable John - Running Out
TTITLE16=Chris and Shack - A Man Never Knows
TTITLE17=Jean Knight - Carry On
TTITLE18=Kim Weston - Brothers and Sisters (Get Together)
TTITLE19=Reggie Milner - Soul Machine
TTITLE20=Freddie Robinson - Sister Hot Pants
EXTD=
EXTT0=
EXTT1=
EXTT2=
EXTT3=
EXTT4=
EXTT5=
EXTT6=
EXTT7=
EXTT8=
EXTT9=
EXTT10=
EXTT11=
EXTT12=
EXTT13=
EXTT14=
EXTT15=
EXTT16=
EXTT17=
EXTT18=
EXTT19=
EXTT20=
PLAYORDER=
